<svg version="1.1" viewBox="0.0 0.0 432.0 100.0" fill="none" stroke="none" stroke-linecap="square" stroke-miterlimit="10" xmlns:xlink="http://www.w3.org/1999/xlink" xmlns="http://www.w3.org/2000/svg"><clipPath id="p.0"><path d="m0 0l432.0 0l0 100.0l-432.0 0l0 -100.0z" clip-rule="nonzero"/></clipPath><g clip-path="url(#p.0)"><path fill="#000000" fill-opacity="0.0" d="m0 0l432.0 0l0 100.0l-432.0 0z" fill-rule="evenodd"/><path fill="#000000" fill-opacity="0.0" d="m16.0 72.0l400.0 0" fill-rule="evenodd"/><path stroke="#000000" stroke-width="1.0" stroke-linejoin="round" stroke-linecap="butt" d="m16.0 72.0l400.0 0" fill-rule="evenodd"/><path fill="#000000" fill-opacity="0.0" d="m416.0 72.0l0 -24.0" fill-rule="evenodd"/><path stroke="#000000" stroke-width="1.0" stroke-linejoin="round" stroke-linecap="butt" d="m416.0 72.0l0 -24.0" fill-rule="evenodd"/><path fill="#000000" fill-opacity="0.0" d="m176.0 72.0l0 -24.0" fill-rule="evenodd"/><path stroke="#000000" stroke-width="1.0" stroke-linejoin="round" stroke-linecap="butt" d="m176.0 72.0l0 -24.0" fill-rule="evenodd"/><path fill="#000000" fill-opacity="0.0" d="m96.0 72.0l0 -24.0" fill-rule="evenodd"/><path stroke="#000000" stroke-width="1.0" stroke-linejoin="round" stroke-linecap="butt" d="m96.0 72.0l0 -24.0" fill-rule="evenodd"/><path fill="#000000" fill-opacity="0.0" d="m16.0 72.0l0 -24.0" fill-rule="evenodd"/><path stroke="#000000" stroke-width="1.0" stroke-linejoin="round" stroke-linecap="butt" d="m16.0 72.0l0 -24.0" fill-rule="evenodd"/><path fill="#000000" fill-opacity="0.0" d="m16.0 8.0l160.0 0l0 40.0l-160.0 0z" fill-rule="evenodd"/><path fill="#000000" d="m94.36719 21.966873l0 6.109375q1.015625 -1.125 1.609375 -1.4375q0.59375 -0.3125 1.1875 -0.3125q0.703125 0 1.203125 0.390625q0.515625 0.390625 0.765625 1.234375q0.171875 0.578125 0.171875 2.125l0 2.953125q0 0.796875 0.125 1.09375q0.09375 0.21875 0.3125 0.34375q0.21875 0.125 0.796875 0.125l0 0.328125l-4.09375 0l0 -0.328125l0.1875 0q0.59375 0 0.8125 -0.171875q0.234375 -0.1875 0.328125 -0.53125q0.015625 -0.140625 0.015625 -0.859375l0 -2.953125q0 -1.359375 -0.140625 -1.78125q-0.140625 -0.4375 -0.453125 -0.640625q-0.296875 -0.21875 -0.734375 -0.21875q-0.453125 0 -0.9375 0.234375q-0.484375 0.234375 -1.15625 0.953125l0 4.40625q0 0.859375 0.09375 1.078125q0.09375 0.203125 0.359375 0.34375q0.265625 0.140625 0.890625 0.140625l0 0.328125l-4.125 0l0 -0.328125q0.546875 0 0.875 -0.171875q0.171875 -0.09375 0.28125 -0.34375q0.109375 -0.265625 0.109375 -1.046875l0 -7.546875q0 -1.4375 -0.0625 -1.765625q-0.0625 -0.328125 -0.203125 -0.4375q-0.140625 -0.125 -0.390625 -0.125q-0.1875 0 -0.609375 0.15625l-0.125 -0.328125l2.484375 -1.015625l0.421875 0z" fill-rule="nonzero"/><path fill="#000000" fill-opacity="0.0" d="m-64.0 8.0l160.0 0l0 40.0l-160.0 0z" fill-rule="evenodd"/><path fill="#000000" d="m12.0078125 28.810623q0 -2.109375 0.640625 -3.625q0.640625 -1.53125 1.6875 -2.28125q0.828125 -0.59375 1.703125 -0.59375q1.421875 0 2.546875 1.453125q1.40625 1.796875 1.40625 4.859375q0 2.15625 -0.625 3.65625q-0.609375 1.5 -1.578125 2.1875q-0.953125 0.671875 -1.84375 0.671875q-1.765625 0 -2.9375 -2.09375q-1.0 -1.75 -1.0 -4.234375zm1.78125 0.234375q0 2.546875 0.640625 4.15625q0.515625 1.359375 1.546875 1.359375q0.484375 0 1.015625 -0.4375q0.53125 -0.4375 0.796875 -1.484375q0.421875 -1.5625 0.421875 -4.421875q0 -2.109375 -0.4375 -3.515625q-0.328125 -1.046875 -0.84375 -1.484375q-0.375 -0.296875 -0.90625 -0.296875q-0.609375 0 -1.09375 0.546875q-0.65625 0.765625 -0.90625 2.390625q-0.234375 1.609375 -0.234375 3.1875z" fill-rule="nonzero"/><path fill="#000000" fill-opacity="0.0" d="m96.0 8.0l160.0 0l0 40.0l-160.0 0z" fill-rule="evenodd"/><path fill="#000000" d="m175.21875 32.545l-0.859375 2.375l-7.28125 0l0 -0.34375q3.203125 -2.921875 4.515625 -4.78125q1.3125 -1.859375 1.3125 -3.40625q0 -1.171875 -0.71875 -1.921875q-0.71875 -0.765625 -1.71875 -0.765625q-0.90625 0 -1.640625 0.546875q-0.71875 0.53125 -1.0625 1.546875l-0.34375 0q0.234375 -1.671875 1.171875 -2.578125q0.953125 -0.90625 2.359375 -0.90625q1.5 0 2.5 0.96875q1.015625 0.96875 1.015625 2.28125q0 0.9375 -0.4375 1.875q-0.671875 1.46875 -2.1875 3.125q-2.265625 2.46875 -2.828125 2.984375l3.21875 0q0.984375 0 1.375 -0.0625q0.40625 -0.078125 0.71875 -0.296875q0.328125 -0.234375 0.5625 -0.640625l0.328125 0zm3.8125 -10.578125l0 6.109375q1.015625 -1.125 1.609375 -1.4375q0.59375 -0.3125 1.1875 -0.3125q0.703125 0 1.203125 0.390625q0.515625 0.390625 0.765625 1.234375q0.171875 0.578125 0.171875 2.125l0 2.953125q0 0.796875 0.125 1.09375q0.09375 0.21875 0.3125 0.34375q0.21875 0.125 0.796875 0.125l0 0.328125l-4.09375 0l0 -0.328125l0.1875 0q0.59375 0 0.8125 -0.171875q0.234375 -0.1875 0.328125 -0.53125q0.015625 -0.140625 0.015625 -0.859375l0 -2.953125q0 -1.359375 -0.140625 -1.78125q-0.140625 -0.4375 -0.453125 -0.640625q-0.296875 -0.21875 -0.734375 -0.21875q-0.453125 0 -0.9375 0.234375q-0.484375 0.234375 -1.15625 0.953125l0 4.40625q0 0.859375 0.09375 1.078125q0.09375 0.203125 0.359375 0.34375q0.265625 0.140625 0.890625 0.140625l0 0.328125l-4.125 0l0 -0.328125q0.546875 0 0.875 -0.171875q0.171875 -0.09375 0.28125 -0.34375q0.109375 -0.265625 0.109375 -1.046875l0 -7.546875q0 -1.4375 -0.0625 -1.765625q-0.0625 -0.328125 -0.203125 -0.4375q-0.140625 -0.125 -0.390625 -0.125q-0.1875 0 -0.609375 0.15625l-0.125 -0.328125l2.484375 -1.015625l0.421875 0z" fill-rule="nonzero"/><path fill="#000000" fill-opacity="0.0" d="m216.0 8.0l160.0 0l0 40.0l-160.0 0z" fill-rule="evenodd"/><path fill="#000000" d="m291.33203 33.154373q0.4375 0 0.71875 0.296875q0.296875 0.296875 0.296875 0.71875q0 0.40625 -0.296875 0.703125q-0.296875 0.296875 -0.71875 0.296875q-0.421875 0 -0.71875 -0.296875q-0.28125 -0.296875 -0.28125 -0.703125q0 -0.4375 0.28125 -0.71875q0.296875 -0.296875 0.71875 -0.296875zm4.6640625 0q0.4375 0 0.71875 0.296875q0.296875 0.296875 0.296875 0.71875q0 0.40625 -0.296875 0.703125q-0.296875 0.296875 -0.71875 0.296875q-0.421875 0 -0.71875 -0.296875q-0.28125 -0.296875 -0.28125 -0.703125q0 -0.4375 0.28125 -0.71875q0.296875 -0.296875 0.71875 -0.296875zm4.6640625 0q0.4375 0 0.71875 0.296875q0.296875 0.296875 0.296875 0.71875q0 0.40625 -0.296875 0.703125q-0.296875 0.296875 -0.71875 0.296875q-0.421875 0 -0.71875 -0.296875q-0.28125 -0.296875 -0.28125 -0.703125q0 -0.4375 0.28125 -0.71875q0.296875 -0.296875 0.71875 -0.296875z" fill-rule="nonzero"/><path fill="#000000" fill-opacity="0.0" d="m336.0 8.0l160.0 0l0 40.0l-160.0 0z" fill-rule="evenodd"/><path fill="#000000" d="m413.52344 23.779373l3.0 -1.46875l0.3125 0l0 10.4375q0 1.03125 0.078125 1.296875q0.09375 0.25 0.359375 0.390625q0.28125 0.125 1.109375 0.140625l0 0.34375l-4.640625 0l0 -0.34375q0.875 -0.015625 1.125 -0.140625q0.265625 -0.140625 0.359375 -0.359375q0.09375 -0.21875 0.09375 -1.328125l0 -6.671875q0 -1.34375 -0.078125 -1.734375q-0.078125 -0.296875 -0.25 -0.421875q-0.15625 -0.140625 -0.390625 -0.140625q-0.34375 0 -0.9375 0.28125l-0.140625 -0.28125z" fill-rule="nonzero"/></g></svg>