<?xml version="1.0" encoding="UTF-8" standalone="no"?>
<!DOCTYPE svg PUBLIC "-//W3C//DTD SVG 1.1//EN"
 "http://www.w3.org/Graphics/SVG/1.1/DTD/svg11.dtd">
<!-- Generated by graphviz version 9.0.0 (0)
 -->
<!-- Pages: 1 -->
<svg width="464pt" height="116pt"
 viewBox="0.00 0.00 464.25 116.00" xmlns="http://www.w3.org/2000/svg" xmlns:xlink="http://www.w3.org/1999/xlink">
<g id="graph0" class="graph" transform="scale(1 1) rotate(0) translate(4 112)">
<polygon fill="white" stroke="none" points="-4,4 -4,-112 460.25,-112 460.25,4 -4,4"/>
<!-- Y0 -->
<g id="node1" class="node">
<title>Y0</title>
<polygon fill="none" stroke="black" points="144.25,-108 0,-108 0,-72 144.25,-72 144.25,-108"/>
<text text-anchor="middle" x="72.12" y="-85.33" font-family="Times,serif" font-size="14.00">Y0 ~ N(μ0, σ0^2)</text>
</g>
<!-- Y -->
<g id="node4" class="node">
<title>Y</title>
<ellipse fill="none" stroke="black" cx="228.12" cy="-18" rx="116.45" ry="18"/>
<text text-anchor="middle" x="228.12" y="-13.32" font-family="Times,serif" font-size="14.00">Y = (1 &#45; △) Y0 + △ Y1</text>
</g>
<!-- Y0&#45;&gt;Y -->
<g id="edge1" class="edge">
<title>Y0&#45;&gt;Y</title>
<path fill="none" stroke="black" d="M111.09,-71.52C132.28,-62.01 158.65,-50.18 180.99,-40.15"/>
<polygon fill="black" stroke="black" points="182.19,-43.45 189.89,-36.16 179.33,-37.06 182.19,-43.45"/>
</g>
<!-- △ -->
<g id="node2" class="node">
<title>△</title>
<polygon fill="none" stroke="black" points="294.25,-108 162,-108 162,-72 294.25,-72 294.25,-108"/>
<text text-anchor="middle" x="228.12" y="-85.33" font-family="Times,serif" font-size="14.00">△ ~ Bernoulli(π)</text>
</g>
<!-- △&#45;&gt;Y -->
<g id="edge2" class="edge">
<title>△&#45;&gt;Y</title>
<path fill="none" stroke="black" d="M228.12,-71.7C228.12,-64.41 228.12,-55.73 228.12,-47.54"/>
<polygon fill="black" stroke="black" points="231.63,-47.62 228.13,-37.62 224.63,-47.62 231.63,-47.62"/>
</g>
<!-- Y1 -->
<g id="node3" class="node">
<title>Y1</title>
<polygon fill="none" stroke="black" points="456.25,-108 312,-108 312,-72 456.25,-72 456.25,-108"/>
<text text-anchor="middle" x="384.12" y="-85.33" font-family="Times,serif" font-size="14.00">Y1 ~ N(μ1, σ1^2)</text>
</g>
<!-- Y1&#45;&gt;Y -->
<g id="edge3" class="edge">
<title>Y1&#45;&gt;Y</title>
<path fill="none" stroke="black" d="M345.16,-71.52C323.97,-62.01 297.6,-50.18 275.26,-40.15"/>
<polygon fill="black" stroke="black" points="276.92,-37.06 266.36,-36.16 274.06,-43.45 276.92,-37.06"/>
</g>
</g>
</svg>
